<svg xmlns="http://www.w3.org/2000/svg" width="800" height="600" viewBox="0 0 800 600">
<defs>
  <radialGradient id="glow" cx="50%" cy="45%" r="65%"><stop offset="0" stop-color="#fff" stop-opacity=".55"/><stop offset="1" stop-color="#fff" stop-opacity="0"/></radialGradient>
  <filter id="soft" x="-20%" y="-20%" width="140%" height="140%"><feGaussianBlur stdDeviation="14"/></filter>
  
</defs>
<rect width="800" height="600" fill="#fde8d2"/>
<rect width="800" height="600" fill="url(#glow)"/>
<ellipse cx="400" cy="505" rx="240" ry="36" fill="#3b2a1a" opacity="0.18" filter="url(#soft)"/><ellipse cx="400" cy="330" rx="235" ry="150" fill="#222"/><ellipse cx="400" cy="318" rx="232" ry="140" fill="#2b2b2b"/><ellipse cx="400" cy="318" rx="200" ry="118" fill="#ef8a3a"/><ellipse cx="360" cy="290" rx="120" ry="50" fill="#fff" opacity=".12"/><rect x="290" y="300" width="58" height="46" rx="10" fill="#fbf6e9" stroke="#eadfc6" stroke-width="3" transform="rotate(6 319 323)"/><rect x="420" y="330" width="58" height="46" rx="10" fill="#fbf6e9" stroke="#eadfc6" stroke-width="3" transform="rotate(-6 449 353)"/><path d="M450 250 q40 -40 80 0 q-10 30 -40 30 q-30 -5 -40 -30z" fill="#ff9d6b" stroke="#e46b3a" stroke-width="4"/><path d="M260 250 q30 -40 70 -10 q-5 30 -35 32 q-25 -2 -35 -22z" fill="#ff9d6b" stroke="#e46b3a" stroke-width="4"/><ellipse cx="360" cy="260" rx="34" ry="24" fill="#6d6f7a"/><ellipse cx="360" cy="258" rx="26" ry="16" fill="#f3e3cf"/><ellipse cx="520" cy="350" rx="34" ry="24" fill="#6d6f7a"/><ellipse cx="520" cy="348" rx="26" ry="16" fill="#f3e3cf"/><circle cx="437" cy="346" r="9" fill="#7cc36a" stroke="#4f9a3c" stroke-width="3"/><circle cx="489" cy="376" r="9" fill="#7cc36a" stroke="#4f9a3c" stroke-width="3"/><circle cx="472" cy="373" r="9" fill="#7cc36a" stroke="#4f9a3c" stroke-width="3"/><circle cx="259" cy="305" r="9" fill="#7cc36a" stroke="#4f9a3c" stroke-width="3"/><circle cx="533" cy="332" r="9" fill="#7cc36a" stroke="#4f9a3c" stroke-width="3"/><circle cx="520" cy="252" r="9" fill="#7cc36a" stroke="#4f9a3c" stroke-width="3"/><circle cx="391" cy="272" r="9" fill="#7cc36a" stroke="#4f9a3c" stroke-width="3"/><rect x="120" y="300" width="40" height="22" rx="10" fill="#1a1a1a"/><rect x="640" y="300" width="40" height="22" rx="10" fill="#1a1a1a"/>
</svg>