<svg xmlns="http://www.w3.org/2000/svg" width="800" height="600" viewBox="0 0 800 600">
<defs>
  <radialGradient id="glow" cx="50%" cy="45%" r="65%"><stop offset="0" stop-color="#fff" stop-opacity=".55"/><stop offset="1" stop-color="#fff" stop-opacity="0"/></radialGradient>
  <filter id="soft" x="-20%" y="-20%" width="140%" height="140%"><feGaussianBlur stdDeviation="14"/></filter>
  
</defs>
<rect width="800" height="600" fill="#fbe1d7"/>
<rect width="800" height="600" fill="url(#glow)"/>
<ellipse cx="400" cy="505" rx="240" ry="36" fill="#3b2a1a" opacity="0.18" filter="url(#soft)"/><ellipse cx="400" cy="330" rx="235" ry="150" fill="#222"/><ellipse cx="400" cy="318" rx="232" ry="140" fill="#2b2b2b"/><ellipse cx="400" cy="318" rx="200" ry="118" fill="#d8432f"/><ellipse cx="360" cy="290" rx="120" ry="50" fill="#fff" opacity=".12"/><rect x="300" y="270" width="58" height="46" rx="10" fill="#fbf6e9" stroke="#eadfc6" stroke-width="3" transform="rotate(-8 329 293)"/><rect x="430" y="300" width="58" height="46" rx="10" fill="#fbf6e9" stroke="#eadfc6" stroke-width="3" transform="rotate(10 459 323)"/><rect x="360" y="340" width="58" height="46" rx="10" fill="#fbf6e9" stroke="#eadfc6" stroke-width="3" transform="rotate(4 389 363)"/><path d="M470 250 q40 -20 70 10 q-30 30 -70 10z" fill="#f0a3a0"/><path d="M250 330 q30 -30 60 0 q-30 25 -60 0z" fill="#f0a3a0"/><path d="M330 230 q30 -12 50 8 l-6 12 q-24 -12 -40 -4z" fill="#c43b2c" opacity=".8"/><ellipse cx="470" cy="360" rx="41.4" ry="32.4" fill="#fffdf6"/><circle cx="473.6" cy="358.2" r="16.2" fill="#f6b23c"/><circle cx="387" cy="308" r="9" fill="#7cc36a" stroke="#4f9a3c" stroke-width="3"/><circle cx="519" cy="295" r="9" fill="#7cc36a" stroke="#4f9a3c" stroke-width="3"/><circle cx="402" cy="312" r="9" fill="#7cc36a" stroke="#4f9a3c" stroke-width="3"/><circle cx="312" cy="302" r="9" fill="#7cc36a" stroke="#4f9a3c" stroke-width="3"/><circle cx="436" cy="341" r="9" fill="#7cc36a" stroke="#4f9a3c" stroke-width="3"/><circle cx="286" cy="272" r="9" fill="#7cc36a" stroke="#4f9a3c" stroke-width="3"/><circle cx="285" cy="343" r="9" fill="#7cc36a" stroke="#4f9a3c" stroke-width="3"/><circle cx="454" cy="236" r="9" fill="#7cc36a" stroke="#4f9a3c" stroke-width="3"/><rect x="120" y="300" width="40" height="22" rx="10" fill="#1a1a1a"/><rect x="640" y="300" width="40" height="22" rx="10" fill="#1a1a1a"/>
</svg>